<svg class="beeLogo" id="Layer_1" data-name="Layer 1" xmlns="http://www.w3.org/2000/svg" viewBox="0 0 100 100">
  <title>bee-logo</title>
  <path d="M57.22,31.91c-.94-2.38,4-13.5,12.2-19,6.88-4.66,10.6-1.29,12,.19,3,5,2.21,9.36-2.52,13.22C71.51,32.34,59.2,33.58,57.22,31.91Z" style="fill:none"/>
  <path d="M28.87,26.29c-4.73-3.86-5.56-8.19-2.52-13.22,1.41-1.48,5.13-4.86,12-.19,8.16,5.52,13.13,16.65,12.19,19C48.59,33.58,36.28,32.34,28.87,26.29Z" style="fill:none"/>
  <path d="M9.62,55.8a20.47,20.47,0,0,1,2.88-1.16,28.07,28.07,0,0,1,5.83-1.12c.72-5.48,3.86-13.31,15.16-17.66-5.44-2.15-10.6-5.59-13.26-10.45C18.36,22,17,16.48,21.35,9.6a3.19,3.19,0,0,1,.35-.47c5.68-6.06,13.33-6.3,21-.64A40.67,40.67,0,0,1,53.89,22,40.82,40.82,0,0,1,65.1,8.49c7.66-5.66,15.31-5.42,21,.64a2.35,2.35,0,0,1,.36.47c4.31,6.88,3,12.4,1.12,15.81-2.56,4.66-7.41,8-12.6,10.18,14.52,5.1,16.51,15.54,16.51,20.82,0,4.91-1.67,14.29-13.3,19.69,3.2,7.3-1.59,14.65-1.82,15a3.06,3.06,0,0,1-2.53,1.35A3,3,0,0,1,71.3,87.7s3.35-5.1,1.14-9.53a51.65,51.65,0,0,1-7.28,1.42,4.09,4.09,0,0,1-.61.1c1.89,6.71-2.23,13-2.44,13.31a3,3,0,0,1-2.52,1.35,3.07,3.07,0,0,1-1.69-.51,3,3,0,0,1-.83-4.22c0-.06,3.32-5.06,1.17-9.48-1,0-2,0-3,0l-1.19,0a3.73,3.73,0,0,1-1.46.29c-.25,0-.49,0-.74,0,.64,6.86-4.49,12.45-4.75,12.73A3,3,0,0,1,42.7,89s4.3-4.66,2.86-9.35a58,58,0,0,1-7-1.25c-.27,6-4.56,10.67-4.8,10.93a3,3,0,0,1-4.43-4.16s4-4.34,3-8.85C22,71.86,19,64.52,18.33,59.31a27.48,27.48,0,0,1-5.84-1.14A18.6,18.6,0,0,1,9.62,57a11.63,11.63,0,0,1-1.09-.6A9.33,9.33,0,0,1,9.62,55.8Zm14.59.61a15.58,15.58,0,0,0,.28,2.86c.77,4.25,3.3,7.65,7.49,10.11A23.51,23.51,0,0,1,28.2,58.66c-.07-.73-.12-1.46-.12-2.2s.05-1.51.12-2.26a23.6,23.6,0,0,1,4-11c-4.34,2.48-7,6-7.72,10.41A16.17,16.17,0,0,0,24.21,56.41Zm61.18,0c0-9.46-7.6-15.38-21.6-17.14a15.31,15.31,0,0,0-11.35,4.17,17.76,17.76,0,0,0-5.75,13c0,9.33,7.73,16.93,17.3,17.14C77.85,71.92,85.39,66,85.39,56.41ZM46.13,41.31a16.2,16.2,0,0,0,.4,30.43,22.81,22.81,0,0,1-5.92-15.28A23.88,23.88,0,0,1,46.13,41.31ZM38.37,12.88c-6.89-4.67-10.61-1.29-12,.19-3,5-2.21,9.36,2.52,13.22,7.4,6.05,19.72,7.29,21.7,5.62C51.5,29.53,46.53,18.4,38.37,12.88ZM78.92,26.29c4.73-3.86,5.56-8.19,2.52-13.22-1.42-1.48-5.14-4.85-12-.19-8.17,5.53-13.13,16.65-12.2,19C59.2,33.58,71.51,32.34,78.92,26.29Z"/>
  <path class="beeEyeLeft" d="M77,51.63a3.13,3.13,0,0,1,.88,2.16,3,3,0,0,1-6.07,0,3.14,3.14,0,0,1,.89-2.16A3.17,3.17,0,0,1,77,51.63Z"/>
  <path class="beeEyeRight" d="M61.18,55.93a3,3,0,0,1-.88-2.14,3.13,3.13,0,0,1,.88-2.16,3.17,3.17,0,0,1,4.3,0,3.11,3.11,0,0,1,.9,2.16,3,3,0,0,1-.9,2.14,3,3,0,0,1-2.14.9A3.08,3.08,0,0,1,61.18,55.93Z"/>
</svg>