<svg id="Layer_1" data-name="Layer 1" xmlns="http://www.w3.org/2000/svg" viewBox="0 0 100 100"><title>honeycomb</title><polygon points="63.44 22.45 56.66 34.19 43.1 34.2 36.33 22.46 43.09 10.71 56.66 10.7 63.44 22.45" style="fill:none;stroke:#fff;stroke-miterlimit:10;stroke-width:2px"/><polygon points="87.44 36.45 80.66 48.19 67.1 48.2 60.33 36.46 67.09 24.71 80.66 24.7 87.44 36.45" style="fill:none;stroke:#fff;stroke-miterlimit:10;stroke-width:2px"/><polygon points="87.44 64.45 80.66 76.19 67.1 76.19 60.33 64.46 67.09 52.71 80.66 52.7 87.44 64.45" style="fill:none;stroke:#fff;stroke-miterlimit:10;stroke-width:2px"/><polygon points="63.44 77.45 56.66 89.19 43.1 89.19 36.33 77.46 43.09 65.71 56.66 65.7 63.44 77.45" style="fill:none;stroke:#fff;stroke-miterlimit:10;stroke-width:2px"/><polygon points="39.44 64.45 32.66 76.19 19.1 76.19 12.33 64.46 19.09 52.71 32.66 52.7 39.44 64.45" style="fill:none;stroke:#fff;stroke-miterlimit:10;stroke-width:2px"/><polygon points="39.44 36.45 32.66 48.19 19.1 48.2 12.33 36.46 19.09 24.71 32.66 24.7 39.44 36.45" style="fill:none;stroke:#fff;stroke-miterlimit:10;stroke-width:2px"/><polygon points="63.44 50.45 56.66 62.19 43.1 62.2 36.33 50.46 43.09 38.71 56.66 38.7 63.44 50.45" style="fill:none;stroke:#fff;stroke-miterlimit:10;stroke-width:2px"/></svg>